# xmcd
#
# Track frame offsets:
#	150
#	13073
#	25379
#	37540
#	47896
#	62760
#	76405
#	87249
#	101381
#	109179
#	120387
#	133545
#	141343
#	151801
#	166056
#	174829
#	187503
#	201152
#	211632
#	226254
#
# Disc length: 3199 seconds
#
# Revision: 0
# Processed by: cddbd v1.5.2PL0 Copyright (c) Steve Scherf et al.
# Submitted via: EZCDAudioConverter 2.3.5.1
#
DISCID=ec0c7d14
DTITLE=금잔디 - 트롯트 금잔디 6
DYEAR=2013
DGENRE=Trot
TTITLE0=내 나이가 어때서
TTITLE1=신 미아리 고개
TTITLE2=춘향아
TTITLE3=내일가면 안되나요
TTITLE4=초혼
TTITLE5=나팔꽃 인생
TTITLE6=1.2.3.4
TTITLE7=꽃은 결코 한 나비를 위해 피지 않는다
TTITLE8=내 인생에 박수
TTITLE9=남자도 가끔
TTITLE10=무슨 사랑
TTITLE11=고향버스
TTITLE12=아이 좋아라
TTITLE13=사랑껌
TTITLE14=춘자야
TTITLE15=카스바의 여인
TTITLE16=누이
TTITLE17=찬찬찬
TTITLE18=있을때 잘해
TTITLE19=너는 내 남자
EXTD=
EXTT0=
EXTT1=
EXTT2=
EXTT3=
EXTT4=
EXTT5=
EXTT6=
EXTT7=
EXTT8=
EXTT9=
EXTT10=
EXTT11=
EXTT12=
EXTT13=
EXTT14=
EXTT15=
EXTT16=
EXTT17=
EXTT18=
EXTT19=
PLAYORDER=
